<svg width="734" height="135" viewBox="0 0 734 135" fill="none" xmlns="http://www.w3.org/2000/svg">
<path fill-rule="evenodd" clip-rule="evenodd" d="M162.102 80.5992V13.1992H202.702V23.1992H174.102V42.2992H198.402V52.4992H174.102V80.5992H162.102Z" fill="#2A2C6B"/>
<path fill-rule="evenodd" clip-rule="evenodd" d="M210.898 61.8V30H222.798V60.2C222.798 68.5 225.098 71.6 230.598 71.6C234.998 71.6 238.098 69.5 241.898 64.6V30H253.798V80.5H244.098L243.098 73H242.698C238.298 78.3 233.298 81.7 226.398 81.7C215.698 81.8 210.898 74.5 210.898 61.8Z" fill="#2A2C6B"/>
<path fill-rule="evenodd" clip-rule="evenodd" d="M263.602 74.7L269.102 67.1C273.602 70.6 277.902 72.7 283.002 72.7C288.502 72.7 291.102 70.1 291.102 66.6C291.102 62.3 285.602 60.5 280.302 58.4C273.602 56 266.102 52.2 266.102 43.7C266.102 34.9 273.202 28.5 284.602 28.5C291.602 28.5 297.302 31.4 301.402 34.6L295.902 41.8C292.402 39.2 288.802 37.5 284.802 37.5C279.802 37.5 277.302 39.8 277.302 43C277.302 46.9 282.302 48.5 287.802 50.5C294.702 53.1 302.402 56.4 302.402 65.8C302.402 74.5 295.502 81.5 282.702 81.5C275.902 81.8 268.502 78.8 263.602 74.7Z" fill="#2A2C6B"/>
<path fill-rule="evenodd" clip-rule="evenodd" d="M318.999 21.2016C314.699 21.2016 311.699 18.4016 311.699 14.5016C311.699 10.5016 314.799 7.60156 318.999 7.60156C323.199 7.60156 326.299 10.4016 326.299 14.5016C326.399 18.3016 323.199 21.2016 318.999 21.2016Z" fill="#2A2C6B"/>
<path d="M325.002 30H313.102V80.5H325.002V30Z" fill="#2A2C6B"/>
<path fill-rule="evenodd" clip-rule="evenodd" d="M336.801 55.3008C336.801 38.4008 348.201 28.8008 360.801 28.8008C373.501 28.8008 384.901 38.5008 384.901 55.3008C384.901 72.1008 373.501 81.7008 360.801 81.7008C348.201 81.8008 336.801 72.2008 336.801 55.3008ZM348.901 55.3008C348.901 65.5008 353.301 72.1008 360.801 72.1008C368.301 72.1008 372.801 65.4008 372.801 55.3008C372.801 45.1008 368.301 38.4008 360.801 38.4008C353.301 38.4008 348.901 45.1008 348.901 55.3008Z" fill="#2A2C6B"/>
<path fill-rule="evenodd" clip-rule="evenodd" d="M396.602 80.6008V30.0008H406.402L407.302 36.9008H407.702C412.202 32.5008 417.402 28.8008 424.302 28.8008C435.102 28.8008 439.802 36.1008 439.802 48.9008V80.6008H427.902V50.4008C427.902 42.1008 425.602 39.0008 419.902 39.0008C415.502 39.0008 412.602 41.2008 408.402 45.2008V80.6008H396.602Z" fill="#2A2C6B"/>
<path fill-rule="evenodd" clip-rule="evenodd" d="M451.5 47.1C451.5 25.1 465.3 12 482.6 12C490.8 12 497.5 16 501.8 20.6L495.2 28.1C491.7 24.7 487.9 22.6 482.7 22.6C471.7 22.6 463.7 31.9 463.7 47.1C463.7 62.4 471 71.7 482.3 71.7C488.3 71.7 492.7 69.3 496.5 65L503.1 72.3C497.6 78.5 490.6 82.1 482.1 82.1C465.1 81.8 451.5 69.5 451.5 47.1Z" fill="#2A2C6B"/>
<path fill-rule="evenodd" clip-rule="evenodd" d="M513.301 80.6008V7.80078H525.201V26.5008L524.801 36.3008C529.101 32.3008 534.101 28.7008 540.901 28.7008C551.701 28.7008 556.401 36.0008 556.401 48.8008V80.5008H544.501V50.4008C544.501 42.1008 542.201 39.0008 536.501 39.0008C532.101 39.0008 529.201 41.2008 525.001 45.2008V80.6008H513.301Z" fill="#2A2C6B"/>
<path fill-rule="evenodd" clip-rule="evenodd" d="M568.602 66.9016C568.602 56.1016 577.702 50.4016 598.302 48.2016C598.202 42.8016 596.002 38.3016 589.102 38.3016C584.102 38.3016 579.302 40.6016 574.902 43.2016L570.602 35.2016C576.102 31.7016 583.302 28.6016 591.302 28.6016C604.002 28.6016 610.102 36.3016 610.102 50.4016V80.4016H600.402L599.402 74.9016H599.002C594.502 78.7016 589.302 81.8016 583.302 81.8016C574.702 81.8016 568.602 75.8016 568.602 66.9016ZM580.102 66.1016C580.102 70.6016 583.002 72.6016 587.302 72.6016C591.502 72.6016 594.602 70.5016 598.302 67.1016V55.7016C584.602 57.4016 580.102 61.0016 580.102 66.1016Z" fill="#2A2C6B"/>
<path fill-rule="evenodd" clip-rule="evenodd" d="M624.602 80.5992V29.9992H634.402L635.302 38.8992H635.702C639.202 32.2992 644.602 28.6992 650.002 28.6992C652.602 28.6992 654.302 29.0992 655.702 29.6992L653.602 39.9992C651.902 39.4992 650.502 39.0992 648.302 39.0992C644.302 39.0992 639.502 41.8992 636.302 49.4992V80.4992H624.602V80.5992Z" fill="#2A2C6B"/>
<path fill-rule="evenodd" clip-rule="evenodd" d="M664.802 63.5008V39.4008H657.602V30.6008L665.402 30.1008L666.902 16.3008H676.802V30.1008H689.602V39.5008H676.802V63.6008C676.802 69.6008 679.102 72.4008 683.902 72.4008C685.602 72.4008 687.702 71.9008 689.202 71.3008L691.302 80.1008C688.502 81.1008 685.102 81.9008 681.002 81.9008C669.202 81.8008 664.802 74.4008 664.802 63.5008Z" fill="#2A2C6B"/>
<path fill-rule="evenodd" clip-rule="evenodd" d="M695.199 74.7L700.699 67.1C705.199 70.6 709.499 72.7 714.599 72.7C720.099 72.7 722.699 70.1 722.699 66.6C722.699 62.3 717.199 60.5 711.899 58.4C705.199 56 697.699 52.2 697.699 43.7C697.699 34.9 704.799 28.5 716.199 28.5C723.199 28.5 728.899 31.4 732.999 34.6L727.499 41.8C723.999 39.2 720.399 37.5 716.399 37.5C711.399 37.5 708.899 39.8 708.899 43C708.899 46.9 713.899 48.5 719.399 50.5C726.299 53.1 733.999 56.4 733.999 65.8C733.999 74.5 727.099 81.5 714.299 81.5C707.499 81.8 700.099 78.8 695.199 74.7Z" fill="#2A2C6B"/>
<path d="M57.8008 45.1016H33.8008V80.0016H57.8008V45.1016Z" fill="#2A2C6B"/>
<path d="M23.5 11.3984H0V80.1984H23.5V11.3984Z" fill="#2A2C6B"/>
<path d="M90.8 0H68.5V80H90.8V0Z" fill="#2A2C6B"/>
<path d="M90.8 90.3008H68.5V113.501H90.8V90.3008Z" fill="#2A2C6B"/>
</svg>
